<svg id="Capa_1" enable-background="new 0 0 512 512" height="512" viewBox="0 0 512 512" width="512" xmlns="http://www.w3.org/2000/svg"><g><path d="m143.166 256.334h-135.666c-4.142 0-7.5 3.358-7.5 7.5v75.335c0 4.142 3.358 7.5 7.5 7.5h135.666c4.142 0 7.5-3.358 7.5-7.5v-75.335c0-4.142-3.358-7.5-7.5-7.5z"/><path d="m323.834 256.334h-135.668c-4.142 0-7.5 3.358-7.5 7.5v75.335c0 4.142 3.358 7.5 7.5 7.5h135.668c4.142 0 7.5-3.358 7.5-7.5v-75.335c0-4.142-3.358-7.5-7.5-7.5z"/><path d="m150.666 218.834v-82.828h-47.439l-63.874-19.358c-5.281-1.6-11.121-.199-15.148 3.932-1.904 1.953-3.168 4.44-3.83 7.086l-19.928 79.698c-.297 1.191-.447 2.412-.447 3.639v7.831c0 4.142 3.358 7.5 7.5 7.5h135.666c4.142 0 7.5-3.358 7.5-7.5z"/><path d="m323.834 376.669h-135.668c-4.142 0-7.5 3.358-7.5 7.5v71.296l42.255-13.824 15.566 59.176c1.734 6.59 7.692 11.184 14.507 11.184h40.004c7.057 0 13.158-4.918 14.657-11.814l7.433-34.184h16.246v-81.834c0-4.142-3.358-7.5-7.5-7.5z"/><path d="m368.834 226.334h135.666c4.142 0 7.5-3.358 7.5-7.5v-117.827c0-8.284-6.716-15-15-15h-60c-7.218 0-13.413 5.141-14.743 12.235l-10.819 57.693-26.118-17.411c-2.464-1.642-5.358-2.519-8.319-2.519h-15.666v82.828c-.001 4.143 3.357 7.501 7.499 7.501z"/><path d="m361.334 384.169v81.834h39.451l25.609 25.604c2.813 2.813 6.628 4.393 10.606 4.393h60c8.284 0 15-6.716 15-15v-96.831c0-4.142-3.358-7.5-7.5-7.5h-135.666c-4.142 0-7.5 3.358-7.5 7.5z"/><path d="m143.166 376.669h-135.666c-4.142 0-7.5 3.358-7.5 7.5v6.828c0 5.972 3.542 11.375 9.018 13.756l141.648 61.54v-82.124c0-4.142-3.358-7.5-7.5-7.5z"/><path d="m311.834 153.346c-18.175 20.893-36.343 35.482-37.107 36.093-5.477 4.376-12.103 6.563-18.727 6.563-6.664 0-13.328-2.214-18.82-6.639-.764-.615-18.896-15.294-37.042-36.215-5.013-5.779-9.564-11.495-13.655-17.143h-5.816v82.828c0 4.142 3.358 7.5 7.5 7.5h135.668c4.142 0 7.5-3.358 7.5-7.5v-82.828h-5.677c-4.135 5.718-8.742 11.499-13.824 17.341z"/><path d="m256 0c-36.672 0-66.4 29.728-66.4 66.397 0 46.111 66.4 99.604 66.4 99.604s66.4-53.055 66.4-99.604c0-36.669-29.728-66.397-66.4-66.397zm0 82.997c-8.284 0-15-6.716-15-15s6.716-15 15-15c8.283 0 15 6.716 15 15s-6.717 15-15 15z"/></g><path d="m507.606 310.394-25.609-25.609v-20.95c0-4.142-3.358-7.5-7.5-7.5h-105.663c-4.142 0-7.5 3.358-7.5 7.5v75.335c0 4.142 3.358 7.5 7.5 7.5h135.666c4.142 0 7.5-3.358 7.5-7.5v-18.17c0-3.978-1.58-7.794-4.394-10.606z"/></svg>